<?xml version="1.0" standalone="no"?>
<!DOCTYPE svg PUBLIC "-//W3C//DTD SVG 20010904//EN"
 "http://www.w3.org/TR/2001/REC-SVG-20010904/DTD/svg10.dtd">
<svg version="1.0" xmlns="http://www.w3.org/2000/svg"
 width="1024.000000pt" height="1024.000000pt" viewBox="0 0 1024.000000 1024.000000"
 preserveAspectRatio="xMidYMid meet">

<g transform="translate(0.000000,1024.000000) scale(0.100000,-0.100000)"
fill="#000000" stroke="none">
<path d="M0 9630 c0 -5 15 -10 34 -10 19 0 38 5 41 10 4 6 -10 10 -34 10 -23
0 -41 -4 -41 -10z"/>
<path d="M668 9633 c39 -2 105 -2 145 0 39 1 7 3 -73 3 -80 0 -112 -2 -72 -3z"/>
<path d="M1893 9633 c42 -2 112 -2 155 0 42 1 7 3 -78 3 -85 0 -120 -2 -77 -3z"/>
<path d="M6968 9633 c18 -2 45 -2 60 0 15 2 0 4 -33 4 -33 0 -45 -2 -27 -4z"/>
<path d="M8008 9633 c6 -2 18 -2 25 0 6 3 1 5 -13 5 -14 0 -19 -2 -12 -5z"/>
<path d="M8178 9633 c12 -2 32 -2 45 0 12 2 2 4 -23 4 -25 0 -35 -2 -22 -4z"/>
<path d="M8328 9633 c18 -2 45 -2 60 0 15 2 0 4 -33 4 -33 0 -45 -2 -27 -4z"/>
<path d="M9368 9633 c12 -2 30 -2 40 0 9 3 -1 5 -23 4 -22 0 -30 -2 -17 -4z"/>
<path d="M10203 9633 c9 -2 23 -2 30 0 6 3 -1 5 -18 5 -16 0 -22 -2 -12 -5z"/>
<path d="M2613 9134 c8 -47 59 -155 100 -213 l33 -46 -75 0 c-195 0 -337 -21
-556 -80 -87 -24 -120 -28 -250 -29 -167 -1 -231 11 -343 65 -35 17 -65 29
-67 27 -10 -10 20 -112 50 -174 31 -64 107 -152 169 -197 17 -13 15 -16 -35
-42 -76 -39 -120 -71 -240 -171 -184 -155 -362 -253 -494 -275 -41 -6 -75 -16
-75 -21 0 -21 32 -69 62 -92 39 -29 142 -81 181 -90 l27 -6 -55 -67 c-102
-123 -180 -304 -209 -480 -16 -100 -61 -200 -124 -273 -37 -44 -104 -80 -150
-80 -37 0 -39 -8 -12 -42 22 -29 99 -65 165 -77 40 -7 118 -1 164 14 17 5 18
-6 24 -142 3 -82 13 -174 21 -205 24 -87 100 -252 162 -351 52 -81 57 -94 55
-140 -1 -45 -5 -54 -41 -84 -25 -22 -46 -52 -57 -83 l-17 -49 -111 107 c-163
158 -242 187 -311 118 -36 -36 -42 -64 -24 -111 9 -23 8 -26 -7 -21 -133 40
-197 15 -210 -82 -3 -25 0 -50 11 -70 16 -32 16 -32 -8 -32 -42 0 -75 -18 -96
-52 -46 -76 -10 -152 102 -211 l48 -25 -42 -14 c-53 -16 -92 -69 -84 -111 16
-77 64 -105 238 -137 95 -17 116 -25 190 -71 82 -52 193 -98 235 -99 42 0 53
-10 53 -52 0 -35 7 -47 59 -101 32 -34 66 -78 74 -97 21 -53 244 -270 518
-508 53 -45 102 -93 109 -107 12 -22 10 -52 -9 -208 -12 -100 -29 -209 -37
-242 -9 -33 -20 -127 -25 -210 -5 -82 -12 -173 -15 -201 -5 -45 -3 -54 22 -83
l27 -32 -42 -128 c-51 -160 -76 -195 -172 -244 -111 -58 -198 -117 -213 -145
-10 -19 -44 -37 -141 -77 -88 -34 -135 -59 -147 -76 -17 -22 -20 -50 -25 -215
-7 -239 5 -341 52 -441 45 -96 106 -157 179 -178 53 -15 58 -15 98 3 92 41
150 97 228 217 l75 114 42 -5 c37 -5 52 0 143 52 56 31 106 67 112 78 6 13 43
35 99 60 49 21 117 56 152 78 60 39 93 63 299 217 84 64 160 101 203 101 12 0
32 -129 55 -360 6 -58 16 -134 21 -170 6 -36 12 -119 14 -185 5 -150 18 -225
45 -244 18 -12 20 -25 20 -156 0 -124 -2 -145 -19 -163 -10 -12 -24 -22 -30
-22 -26 0 -5 -34 24 -40 17 -4 40 -12 52 -18 24 -13 737 -17 916 -5 98 6 129
19 60 25 l-38 3 -1 61 c-2 82 -21 161 -50 207 -14 21 -53 58 -87 82 -34 24
-77 56 -96 69 l-33 25 1 116 c2 84 -1 115 -10 115 -9 0 -10 18 -6 68 4 37 13
135 21 217 8 83 19 242 25 355 17 316 21 350 37 350 32 0 37 41 39 349 l2 305
39 12 c381 120 394 125 419 174 12 23 22 28 67 33 67 6 171 56 220 104 31 30
68 97 91 165 5 15 14 13 74 -17 37 -18 104 -49 148 -68 44 -19 123 -56 176
-82 58 -29 104 -45 113 -42 9 4 24 21 34 38 43 79 43 79 92 4 24 -37 70 -88
101 -114 140 -114 195 -153 234 -163 36 -10 45 -18 69 -64 18 -33 43 -63 69
-80 67 -44 67 -45 67 -185 l0 -127 28 -6 c15 -3 96 -2 180 2 85 4 155 6 157 4
1 -2 -1 -20 -6 -40 -13 -53 -12 -248 1 -382 12 -123 33 -250 103 -640 25 -135
48 -273 51 -307 9 -85 33 -174 53 -195 15 -17 14 -21 -14 -61 -47 -66 -73
-123 -73 -162 0 -32 2 -35 29 -35 22 0 30 5 33 20 2 12 6 21 11 20 4 0 50 0
103 0 87 0 96 -2 101 -20 6 -24 53 -28 53 -5 0 13 43 15 353 13 275 -2 351 -6
349 -15 -1 -9 11 -13 34 -13 l37 0 -5 118 c-5 117 -5 118 22 151 36 42 42 31
40 -67 -3 -104 -3 -101 25 -114 30 -14 33 -34 5 -41 -12 -3 -20 -14 -20 -26 0
-20 5 -21 105 -21 l105 0 0 -25 c0 -30 14 -31 69 -9 22 9 48 14 58 12 10 -2
-15 -14 -54 -27 l-73 -24 0 -38 c0 -34 3 -39 24 -39 13 0 48 11 77 24 30 13
95 38 144 56 50 18 94 36 100 41 16 16 32 10 76 -31 43 -39 94 -58 124 -46 9
3 18 19 22 36 6 31 6 30 45 -40 27 -48 52 -79 80 -98 35 -23 206 -88 287 -109
l24 -6 -6 86 c-4 47 -10 93 -14 103 -4 12 -2 15 8 12 8 -2 20 -24 28 -47 10
-31 24 -49 52 -67 45 -28 48 -29 63 -10 9 12 28 13 111 4 56 -5 107 -16 115
-23 20 -17 62 -27 76 -18 6 5 16 18 23 30 10 19 19 22 77 22 55 0 71 4 90 22
l24 22 80 -37 c90 -43 127 -42 155 1 16 24 20 25 82 18 59 -6 67 -5 89 16 86
81 123 273 86 451 -22 107 -41 141 -101 183 -39 27 -52 31 -131 42 l-35 5 0
111 c-1 125 -9 150 -97 292 -53 86 -101 118 -167 111 -31 -3 -53 1 -75 15 -67
41 -137 10 -152 -67 -5 -30 -14 -38 -69 -64 -35 -17 -77 -43 -94 -59 -22 -21
-31 -25 -31 -14 0 27 -41 83 -60 83 -16 0 -79 -51 -197 -159 -57 -53 -100
-125 -114 -191 -16 -84 -31 -140 -36 -140 -3 0 -13 10 -22 22 -28 34 -59 17
-139 -76 -82 -96 -109 -117 -118 -89 -12 40 -22 48 -60 50 -43 3 -59 -6 -93
-54 -12 -18 -25 -33 -29 -33 -4 0 -7 26 -7 59 -1 43 -8 71 -28 110 -33 65 -33
72 -2 101 14 13 30 41 37 62 l11 37 57 -53 c163 -150 367 -67 364 149 -1 79
-13 109 -80 198 -24 31 -44 61 -44 65 0 4 33 17 73 29 86 26 138 59 219 139
72 72 128 154 159 233 23 58 24 59 69 65 103 14 198 85 242 181 18 40 22 68
23 145 0 87 -3 100 -30 148 -65 118 -183 194 -318 207 -56 5 -76 11 -85 26
-10 16 -6 22 31 47 23 16 78 70 122 120 44 49 82 86 83 81 5 -13 -41 -90 -67
-113 -70 -63 50 -72 179 -13 25 12 73 49 107 84 39 39 71 63 85 63 74 0 174
98 236 230 30 65 36 88 40 171 8 171 -40 306 -198 554 -46 72 -91 144 -101
160 -19 31 -69 158 -69 175 0 5 13 7 29 4 38 -8 154 12 208 36 25 11 48 30 57
48 l15 30 -37 7 c-98 17 -205 97 -243 181 -17 37 -18 55 -9 225 22 429 4 664
-71 949 -46 171 -161 424 -243 533 -94 126 -220 265 -298 332 -170 144 -296
209 -462 235 -42 7 -81 19 -87 26 -6 8 -17 45 -25 84 -27 143 -104 240 -239
305 -86 41 -131 53 -215 57 -52 2 -65 0 -65 -12 0 -10 23 -19 70 -30 104 -24
154 -50 229 -121 85 -79 127 -139 134 -191 l5 -41 -59 40 c-118 79 -185 115
-271 144 -317 107 -670 71 -1122 -116 -276 -114 -586 -395 -768 -695 -64 -106
-103 -192 -154 -339 -54 -157 -73 -235 -109 -456 -21 -127 -41 -213 -60 -260
-60 -147 -72 -192 -77 -272 -10 -151 35 -285 138 -412 l51 -64 -22 -90 c-21
-85 -71 -269 -75 -275 -1 -1 -64 29 -141 67 -276 137 -596 281 -623 281 -22 0
-21 23 3 88 35 97 42 217 21 371 -23 180 -20 194 79 294 106 107 161 207 205
374 l11 41 45 -24 c25 -15 69 -28 101 -31 l56 -6 -8 44 c-11 56 -12 385 -1
396 5 4 21 -6 35 -23 15 -18 39 -40 55 -49 l27 -17 0 47 c0 81 -93 538 -130
636 l-17 47 76 4 c134 8 240 73 298 185 52 99 50 160 -3 102 -10 -12 -31 -27
-46 -35 -36 -19 -149 -18 -196 1 -50 21 -121 93 -194 195 -177 247 -264 319
-429 354 -26 6 -26 6 -26 98 0 140 -37 241 -141 384 -37 50 -168 162 -275 233
-70 47 -117 99 -141 155 -3 6 -13 1 -25 -13 -19 -21 -21 -36 -21 -137 l0 -114
-53 43 c-122 100 -398 215 -602 252 -143 26 -375 85 -434 111 -29 13 -56 24
-59 24 -2 0 -2 -16 1 -36z m302 -138 c61 -14 156 -34 212 -46 239 -49 432
-135 575 -255 65 -56 137 -139 127 -149 -2 -2 -36 24 -76 59 -78 69 -232 164
-328 203 -70 28 -208 71 -344 108 -125 33 -269 81 -301 99 l-25 15 25 -5 c14
-2 75 -16 135 -29z m-115 -201 c41 -8 95 -21 120 -29 44 -14 40 -15 -123 -15
-184 -1 -272 -12 -542 -67 -159 -33 -197 -37 -325 -37 -124 0 -159 3 -244 26
-146 39 -142 51 9 22 44 -9 112 -15 151 -14 85 2 277 32 383 59 252 63 434 81
571 55z m1214 -85 c82 -66 145 -140 181 -210 22 -44 47 -121 41 -127 -1 -2
-20 30 -42 70 -30 57 -68 101 -176 207 -76 75 -138 139 -138 143 0 14 58 -22
134 -83z m-525 -206 c90 -16 222 -62 183 -63 -13 -1 -79 9 -145 20 -101 18
-144 20 -247 15 -69 -4 -154 -13 -190 -21 -208 -45 -255 -54 -259 -50 -15 15
244 101 349 116 70 9 201 2 309 -17z m-1659 -94 c0 -6 -14 -19 -31 -28 -48
-26 -240 -154 -237 -157 2 -2 54 12 116 31 62 19 121 34 130 34 25 0 -74 -59
-163 -97 -44 -19 -161 -76 -260 -128 -171 -88 -268 -126 -362 -141 -24 -4 -43
-3 -43 2 0 5 42 27 93 50 99 43 345 191 349 210 5 19 161 148 220 182 75 43
188 68 188 42z m2050 -264 c-34 -104 -151 -270 -211 -302 -38 -19 -38 -3 0 45
15 20 61 88 101 151 83 131 121 183 127 176 3 -3 -5 -34 -17 -70z m590 -122
c74 -33 143 -104 256 -259 121 -169 127 -174 209 -230 53 -35 63 -45 40 -39
-32 7 -95 44 -95 56 0 4 -24 24 -54 45 -50 36 -133 126 -201 217 -52 71 -155
174 -206 206 -27 18 -49 34 -49 37 0 7 39 -6 100 -33z m-3257 -301 c-51 -60
-193 -259 -251 -354 l-33 -54 5 39 c19 138 168 370 275 426 57 29 58 7 4 -57z
m5982 13 c106 -19 242 -69 302 -112 26 -19 45 -34 42 -34 -3 0 -52 15 -110 34
-152 50 -250 69 -374 71 -209 5 -325 -20 -573 -120 -260 -105 -420 -213 -618
-417 -206 -211 -357 -471 -432 -743 -22 -77 -74 -234 -117 -350 -103 -280
-123 -343 -136 -423 -10 -63 -9 -74 24 -192 19 -69 38 -134 41 -145 4 -11 -6
5 -23 36 -16 31 -42 98 -56 150 -23 78 -26 106 -21 164 6 66 56 226 119 382
16 39 21 65 15 71 -14 14 47 317 94 462 96 297 220 494 449 715 151 145 321
252 540 338 115 46 314 100 424 116 97 14 323 12 410 -3z m-6062 -243 c-19
-56 -197 -409 -231 -459 -43 -63 -128 -151 -137 -142 -3 3 12 34 34 70 21 35
79 145 129 245 49 99 104 201 121 226 42 62 99 102 84 60z m6825 -103 c95 -16
149 -37 237 -95 241 -156 503 -521 575 -800 7 -27 16 -54 20 -60 12 -16 19
-81 11 -94 -5 -7 -15 12 -26 46 -102 328 -214 524 -406 713 -145 143 -294 236
-430 268 -38 10 -69 20 -69 25 0 9 12 9 88 -3z m-3763 -270 c3 -11 11 -20 17
-20 5 0 8 7 4 15 -3 8 -2 15 2 15 14 0 37 -20 38 -32 1 -7 2 -19 3 -26 0 -7 5
-11 9 -8 12 7 46 -66 98 -208 24 -66 44 -120 44 -121 0 -1 -7 -2 -15 -2 -8 0
-15 5 -15 10 0 6 -3 8 -6 5 -6 -7 12 -79 31 -123 7 -16 15 -38 19 -47 3 -10
10 -18 16 -18 6 0 8 5 5 10 -3 6 -2 10 4 10 16 0 23 -139 12 -252 -10 -101
-40 -267 -60 -333 -8 -27 -9 -24 -10 26 -1 61 -22 143 -53 203 -32 62 -113
141 -171 166 -93 40 -210 15 -286 -62 -30 -31 -66 -96 -57 -105 2 -2 21 8 41
22 71 47 181 69 205 40 7 -8 18 -15 24 -15 6 0 4 5 -4 10 -8 5 -11 10 -5 10 5
0 20 -12 33 -27 21 -25 22 -25 12 -4 l-12 23 42 -23 c89 -50 133 -138 150
-299 5 -56 10 -104 10 -106 0 -2 6 -4 13 -4 9 0 12 -31 14 -117 1 -65 3 -190
5 -278 3 -157 3 -161 -25 -220 -94 -201 -311 -339 -642 -410 -152 -32 -249
-40 -470 -39 -147 0 -217 6 -311 22 -234 42 -418 108 -609 220 -180 106 -263
182 -355 326 -54 84 -66 97 -84 91 -198 -64 -351 -35 -478 92 -54 53 -58 74
-36 201 9 55 9 76 -1 101 -14 33 -57 65 -104 77 -27 6 -28 9 -22 42 26 140
148 247 279 245 56 -1 133 -22 163 -46 7 -5 39 -64 72 -130 64 -133 115 -199
181 -236 l43 -24 -7 34 c-16 86 -18 167 -6 252 21 153 42 206 122 304 39 49
75 87 80 85 5 -1 7 2 4 7 -4 5 5 23 19 39 14 16 25 33 25 36 0 5 56 101 67
115 2 2 42 14 90 27 49 12 134 36 189 52 56 17 135 33 175 37 41 3 110 10 154
15 44 5 107 12 139 15 32 3 64 8 70 11 6 3 -2 -6 -19 -21 -27 -24 -76 -50
-144 -76 -15 -6 -21 -13 -15 -19 13 -13 309 -60 379 -60 58 0 238 29 300 49
189 58 383 196 516 366 95 121 93 119 104 85z m-3160 -560 c22 -141 76 -289
136 -377 29 -42 37 -77 19 -88 -13 -8 -96 123 -137 220 -57 132 -76 231 -70
365 2 64 10 128 18 145 12 28 13 20 20 -95 3 -69 10 -145 14 -170z m5845 177
c25 -8 61 -18 80 -21 67 -12 106 -49 149 -139 22 -46 52 -120 67 -163 14 -43
39 -110 55 -148 16 -37 29 -69 29 -71 0 -2 -27 6 -61 16 -139 43 -271 5 -225
-66 15 -22 80 -45 129 -45 13 0 59 -9 103 -19 43 -11 91 -22 106 -25 20 -5 41
-28 84 -94 88 -133 136 -192 203 -247 71 -59 77 -75 24 -65 -67 12 -105 42
-117 93 -4 19 -13 27 -27 27 -12 0 -47 16 -78 35 -91 56 -156 77 -237 76 -90
0 -173 -30 -230 -83 -40 -37 -84 -121 -71 -134 3 -4 26 5 51 20 56 33 83 34
34 1 -87 -59 -125 -196 -97 -351 45 -244 304 -346 469 -185 66 64 94 139 94
251 0 173 -86 293 -247 346 l-42 14 60 -3 c150 -8 297 -135 354 -305 12 -34
21 -83 21 -109 l0 -47 36 35 c65 62 84 116 85 239 0 44 4 80 7 80 4 0 31 -13
61 -28 l55 -29 22 -93 c12 -51 24 -113 27 -139 9 -80 24 -109 43 -80 3 6 17 8
29 5 19 -5 32 4 69 47 25 30 69 66 97 82 45 24 59 27 115 22 75 -6 132 -36
188 -98 47 -51 62 -86 71 -164 8 -71 -12 -172 -46 -231 -37 -66 -117 -140
-180 -169 -33 -14 -64 -23 -69 -20 -6 3 -10 0 -10 -8 0 -18 -30 -27 -96 -27
-64 0 -134 21 -187 56 l-41 27 -20 -29 c-72 -104 -260 -250 -409 -319 -169
-78 -293 -95 -697 -98 -295 -2 -295 -2 -403 26 -129 34 -297 100 -387 152 -83
49 -219 184 -250 250 -36 75 -40 238 -10 368 12 53 20 112 18 131 -4 35 -4 35
19 21 12 -8 24 -15 25 -15 2 0 3 46 4 103 1 154 44 245 138 294 28 15 116 28
116 18 0 -3 -17 -13 -38 -24 -89 -45 -136 -143 -136 -281 0 -93 24 -175 67
-232 51 -67 90 -88 159 -88 65 0 100 14 139 57 87 93 99 275 29 429 -16 35
-27 70 -25 77 10 27 -50 112 -108 152 -56 38 -62 40 -135 40 -59 0 -86 -5
-117 -21 l-41 -21 -2 48 c-1 28 2 49 8 49 5 0 10 7 10 15 0 26 39 94 63 109
12 8 63 28 112 45 50 17 95 38 102 47 32 44 -42 91 -126 80 -38 -5 -42 -4 -36
12 4 9 26 91 50 181 46 173 59 200 121 243 97 68 336 128 505 127 44 0 83 1
85 4 10 10 172 -2 214 -16z m1681 -57 c25 -14 57 -77 65 -129 11 -70 -21 -86
-116 -57 l-45 13 -8 69 c-9 66 -8 69 18 91 28 25 55 29 86 13z m-4114 -72 c-3
-7 -5 -2 -5 12 0 14 2 19 5 13 2 -7 2 -19 0 -25z m3547 -84 c5 -14 4 -15 -9
-4 -17 14 -19 20 -6 20 5 0 12 -7 15 -16z m342 -10 c19 -9 34 -19 34 -23 0 -3
-10 -22 -21 -41 l-21 -35 23 21 c46 40 49 39 49 -19 0 -39 -6 -62 -19 -78
l-19 -23 -53 28 c-70 37 -99 69 -99 109 0 71 52 96 126 61z m-7585 -623 c24
-15 78 -63 119 -107 100 -105 173 -174 181 -174 4 0 15 26 24 57 34 117 79
174 138 176 65 2 79 -33 56 -132 -8 -35 -6 -71 8 -155 18 -116 21 -175 11
-264 -6 -55 -33 -104 -117 -209 -58 -74 -87 -87 -180 -80 -104 7 -163 28 -262
91 -77 50 -91 56 -169 65 -111 14 -177 37 -197 68 -15 22 -15 25 0 40 13 13
42 17 134 20 163 5 157 3 176 67 20 73 90 178 145 217 l43 31 -79 82 c-81 83
-142 167 -142 196 0 46 48 51 111 11z m-214 -126 c29 -12 193 -127 236 -165 4
-3 1 -22 -7 -41 -9 -19 -15 -29 -16 -24 0 6 -9 -1 -19 -14 l-19 -24 -121 78
c-131 84 -161 113 -161 154 0 51 39 64 107 36z m4 -255 c63 -29 118 -56 123
-61 6 -5 5 -18 -2 -33 -8 -19 -8 -26 1 -30 16 -6 -11 -26 -37 -26 -24 0 -142
42 -208 76 -67 33 -98 62 -98 89 0 61 59 57 221 -15z m969 -151 c67 -26 225
-37 285 -20 38 11 41 10 63 -16 179 -211 269 -292 412 -369 46 -25 65 -41 57
-46 -6 -4 -62 -8 -124 -8 -136 0 -95 -21 -497 250 -60 40 -129 79 -153 86 -24
7 -77 37 -118 66 -72 51 -74 54 -74 95 l-1 43 47 -30 c26 -17 72 -40 103 -51z
m5825 -14 c32 -31 32 -70 0 -91 -23 -15 -27 -15 -62 3 -41 20 -54 54 -33 93
15 29 64 27 95 -5z m-1137 -11 c22 -15 27 -38 16 -68 -7 -19 -52 -21 -89 -4
-27 12 -35 54 -13 76 17 17 59 15 86 -4z m-4762 -115 c62 -49 77 -69 52 -69
-20 0 -128 89 -128 105 0 23 7 19 76 -36z m156 -85 c18 -9 79 -49 137 -88 59
-39 158 -102 222 -139 110 -64 167 -107 140 -107 -19 0 -228 108 -289 149 -74
49 -188 123 -229 146 -18 11 -33 27 -33 37 0 22 12 23 52 2z m2970 -111 c191
-86 775 -376 792 -393 8 -8 -45 -138 -140 -347 -20 -43 -49 -110 -65 -150 -25
-63 -135 -258 -173 -306 -13 -17 -20 -15 -123 36 -59 30 -146 70 -193 90 -77
32 -214 97 -328 155 l-42 22 31 62 c22 44 33 57 39 47 8 -11 10 -11 13 1 2 8
13 44 25 80 15 48 18 67 9 72 -19 12 -30 9 -24 -6 3 -7 -7 -32 -22 -55 l-28
-41 -13 26 c-13 23 -12 30 3 56 22 38 21 48 -3 48 -11 0 -20 4 -20 8 0 11 -55
42 -74 42 -9 0 -25 -19 -37 -42 -22 -45 -57 -88 -71 -88 -4 0 -8 11 -8 25 0
25 -32 51 -50 40 -16 -10 -12 -24 15 -47 l26 -22 -43 -18 c-51 -20 -105 -23
-111 -5 -2 6 6 41 19 77 12 36 36 117 53 181 32 120 67 222 102 292 19 39 222
247 240 247 5 0 95 -39 201 -87z m768 48 c0 -36 -42 -181 -69 -241 -28 -62
-26 -32 8 107 16 65 32 131 36 146 7 35 25 26 25 -12z m15 -247 c-15 -57 -30
-104 -34 -104 -3 0 -17 9 -29 18 l-24 19 31 50 c17 27 40 72 52 99 33 74 35
35 4 -82z m-1275 36 c0 -10 -9 -43 -21 -72 -12 -29 -49 -136 -84 -238 -34
-102 -70 -201 -79 -222 -15 -36 -15 -36 12 -54 l27 -18 -55 -16 c-39 -12 -73
-15 -116 -11 -75 8 -90 20 -357 282 l-189 186 119 7 c161 10 359 40 467 71 86
25 215 75 246 95 22 15 30 12 30 -10z m-2921 -35 c39 -42 51 -65 33 -65 -14 0
-103 96 -96 103 13 13 21 8 63 -38z m1109 -21 c25 -17 29 -34 7 -34 -8 0 -36
5 -62 11 -81 20 -77 17 -62 35 15 19 80 12 117 -12z m-879 -226 c75 -73 206
-194 291 -269 85 -75 178 -161 207 -193 69 -74 61 -100 -10 -32 -29 28 -106
95 -172 149 -128 105 -437 395 -462 433 -13 21 -11 44 4 44 3 0 67 -60 142
-132z m1456 9 c44 -14 105 -29 135 -32 30 -3 56 -8 59 -10 11 -12 -32 -53 -61
-59 -85 -15 -268 73 -268 131 0 13 -1 13 135 -30z m-65 -92 c47 -24 170 -48
217 -41 58 8 82 21 95 54 l10 27 13 -31 c35 -81 79 -402 95 -684 5 -102 14
-248 20 -325 15 -220 21 -578 11 -594 -13 -20 -195 -26 -336 -12 -98 10 -306
40 -313 46 -1 1 16 83 37 181 79 354 120 815 91 1029 -5 39 -16 125 -25 191
-8 67 -24 148 -35 179 -30 87 -26 91 37 40 31 -25 68 -52 83 -60z m1489 -122
c-6 -7 -18 -13 -26 -13 -20 0 -28 27 -13 45 11 14 15 14 31 -1 14 -13 16 -20
8 -31z m-604 -187 c48 -40 61 -46 63 -32 5 23 26 15 30 -12 6 -37 -43 -28
-112 22 -64 46 -136 118 -136 137 0 10 25 -8 155 -115z m601 99 c20 -31 14
-82 -14 -123 -10 -15 -24 -54 -31 -87 -6 -33 -22 -81 -35 -108 -19 -39 -21
-49 -10 -58 11 -9 23 -3 53 28 30 30 41 50 46 86 4 26 9 47 11 47 3 0 34 -13
69 -29 70 -32 74 -40 51 -95 -50 -121 -234 -210 -296 -144 -11 12 -20 29 -20
38 0 9 -4 20 -9 26 -18 17 -111 237 -117 275 -8 48 12 69 128 127 100 51 149
55 174 17z m3122 -152 l-3 -177 -40 -8 c-22 -5 -44 -13 -49 -18 -16 -16 -26
-12 -26 10 0 15 -7 20 -25 20 -19 0 -25 -5 -25 -23 0 -13 5 -28 12 -35 8 -8 3
-21 -24 -50 -73 -80 -56 -234 38 -358 16 -21 24 -44 24 -72 0 -22 5 -44 10
-47 13 -8 33 44 27 72 -2 13 -3 23 -1 23 12 0 76 -46 84 -60 5 -10 13 -74 16
-143 l7 -125 -169 0 c-293 0 -1379 -21 -1452 -28 -50 -5 -71 -3 -77 6 -4 6 -4
72 0 146 7 132 8 135 34 148 64 34 111 165 111 314 0 77 -19 121 -69 162 -25
21 -30 30 -18 30 9 0 17 5 17 10 0 13 -6 13 -29 -2 -10 -6 -26 -8 -35 -5 -14
6 -16 27 -16 156 l0 150 43 5 c92 11 599 37 912 47 182 6 395 14 475 18 80 4
169 9 198 10 l52 1 -2 -177z m153 -79 c17 -34 33 -81 36 -104 6 -40 4 -43 -13
-36 -10 4 -40 12 -66 17 -26 6 -50 14 -53 19 -3 5 -2 59 1 121 l7 113 29 -35
c16 -19 43 -62 59 -95z m-3701 102 c0 -3 -4 -8 -10 -11 -5 -3 -10 -1 -10 4 0
6 5 11 10 11 6 0 10 -2 10 -4z m-1930 -245 c0 -39 -37 -283 -60 -393 -11 -53
-20 -122 -20 -153 0 -65 -14 -70 -42 -14 -23 45 -22 51 11 224 17 83 35 197
41 255 7 58 14 116 16 129 l5 24 25 -23 c13 -13 24 -35 24 -49z m5864 0 c47
-11 111 -70 137 -126 10 -22 19 -45 19 -50 0 -16 -147 -10 -166 6 -19 15 -84
145 -84 166 0 15 38 16 94 4z m1331 -84 c-8 -47 -42 -127 -55 -127 -5 0 -3 18
5 40 8 21 19 67 26 101 9 46 14 57 21 45 5 -10 7 -36 3 -59z m-1635 41 c64
-33 95 -92 94 -178 -1 -78 -16 -135 -47 -181 -19 -28 -30 -34 -62 -36 -58 -4
-144 41 -170 89 -23 44 -19 51 23 39 17 -5 34 -6 37 -1 2 4 -15 13 -39 19 -25
6 -51 18 -59 26 -29 28 3 78 59 95 26 7 24 8 -18 9 -46 1 -48 2 -48 30 0 22
10 38 38 61 64 53 124 62 192 28z m-1706 -29 c25 -20 33 -50 20 -83 -5 -13
-15 -15 -43 -11 -32 5 -34 4 -17 -7 61 -42 71 -55 61 -84 -8 -23 -22 -33 -60
-46 l-50 -16 53 -1 c54 -1 57 -5 46 -47 -7 -26 -53 -54 -91 -55 -24 0 -25 -2
-8 -9 17 -6 14 -9 -17 -15 -45 -9 -53 -4 -80 48 -32 62 -32 194 0 257 13 25
36 55 50 67 35 30 99 31 136 2z m1872 -31 c15 -18 43 -67 63 -108 31 -65 36
-85 35 -145 -1 -96 -43 -173 -116 -211 -34 -18 -107 -18 -130 0 -27 20 -22 40
20 67 26 17 47 44 72 94 30 59 35 81 38 150 2 47 -3 102 -11 133 -8 28 -11 52
-6 52 4 0 20 -15 35 -32z m358 -174 c132 -34 237 -96 355 -208 166 -160 234
-313 233 -526 -1 -130 -14 -189 -68 -299 -51 -104 -142 -206 -227 -255 -43
-25 -52 -26 -94 -18 -30 7 -70 7 -117 0 -119 -17 -236 -5 -353 35 -117 40
-189 85 -261 161 -62 66 -77 112 -68 216 4 41 11 133 16 205 5 71 13 131 17
133 30 10 35 23 36 90 l1 71 55 7 c172 20 273 143 275 333 l1 83 70 -7 c39 -3
97 -13 129 -21z m-6176 -389 c2 -22 -1 -57 -5 -78 l-8 -39 -29 23 c-30 24 -32
48 -7 112 17 43 45 32 49 -18z m6825 21 c73 -17 127 -55 171 -119 92 -134 63
-302 -63 -371 -27 -14 -58 -26 -70 -26 -20 0 -21 5 -21 98 0 152 -17 256 -56
341 -19 41 -34 78 -34 82 0 12 4 11 73 -5z m-1309 -219 c22 -141 23 -139 -50
-109 -46 19 -244 134 -244 142 0 3 65 4 145 2 l144 -3 5 -32z m-1201 -45 c-7
-48 -39 -122 -53 -122 -6 0 -8 10 -6 23 3 12 8 46 11 75 3 30 11 62 18 73 11
17 13 18 24 3 6 -9 9 -31 6 -52z m-4333 -83 c-44 -143 -82 -214 -155 -295 -63
-69 -63 -69 -70 -41 -11 43 1 70 45 97 53 32 89 79 105 138 8 26 29 88 47 139
28 78 35 90 47 79 11 -12 8 -30 -19 -117z m4313 -177 c11 -154 90 -675 143
-944 4 -20 2 -28 -8 -28 -19 0 -37 81 -88 390 -73 433 -96 670 -66 670 9 0 15
-24 19 -88z m-4596 -147 c-3 -20 -6 -37 -8 -39 -2 -2 -34 -22 -71 -44 l-68
-41 0 29 c0 24 9 35 54 65 30 20 60 42 66 50 21 25 31 17 27 -20z m-203 -147
c3 -13 1 -27 -4 -32 -5 -5 -3 -21 5 -40 7 -17 25 -62 40 -101 15 -38 29 -75
32 -82 2 -6 -5 -13 -17 -15 -16 -2 -34 -26 -68 -91 -40 -77 -50 -88 -81 -97
-19 -5 -37 -7 -40 -4 -7 7 -3 281 5 319 3 17 14 39 23 50 15 19 15 19 -2 6
-17 -14 -18 -12 -15 24 3 34 8 41 48 61 56 29 66 29 74 2z m1495 -72 c11 -13
67 -404 72 -506 3 -44 0 -56 -13 -58 -20 -4 -21 1 -49 248 -11 102 -24 214
-29 250 -5 36 -9 83 -9 105 l1 40 8 -32 c4 -18 13 -39 19 -47z m-1664 -36
c-19 -101 -19 -349 -1 -443 27 -139 61 -190 158 -237 49 -23 56 -30 43 -40
-30 -25 -136 12 -187 67 -43 45 -78 133 -88 220 -8 71 -4 401 5 448 3 16 74
70 81 62 1 -1 -4 -36 -11 -77z m6304 -24 c49 -25 93 -41 97 -38 4 4 3 1 -1 -7
-6 -11 -4 -13 9 -8 11 4 15 3 11 -4 -4 -6 -1 -9 6 -8 31 4 77 -14 82 -32 3
-10 11 -19 17 -19 10 0 10 3 1 14 -11 12 -7 13 25 3 34 -10 35 -12 14 -17
l-24 -6 29 -20 c54 -38 75 -45 187 -65 131 -23 229 -26 210 -6 -7 6 -17 13
-22 13 -6 1 -14 2 -20 3 -12 1 -13 31 -1 31 17 0 103 -102 123 -146 22 -52 19
-118 -9 -165 -18 -29 -71 -59 -106 -59 -74 1 -186 104 -213 196 -11 40 -22 58
-42 68 -44 22 -52 12 -52 -67 0 -72 -15 -114 -56 -154 -8 -8 -19 -23 -24 -34
-10 -17 -8 -18 14 -10 21 8 23 7 19 -10 -5 -16 -11 -18 -40 -13 -26 5 -50 -1
-103 -25 -91 -42 -195 -73 -250 -75 l-45 -1 3 33 c2 22 -3 41 -14 53 -12 13
-14 22 -7 31 6 7 25 142 44 301 19 158 37 287 42 287 4 0 48 -20 96 -44z m186
34 c3 -5 2 -10 -4 -10 -5 0 -13 5 -16 10 -3 6 -2 10 4 10 5 0 13 -4 16 -10z
m82 -29 c95 -25 306 -31 345 -10 23 12 72 3 63 -11 -3 -6 0 -10 7 -10 8 0 6
-5 -5 -11 -31 -18 -265 -11 -349 10 -85 22 -128 38 -128 47 0 3 6 4 14 1 8 -3
32 -10 53 -16z m1262 -186 c-5 -39 -11 -115 -12 -171 -1 -64 -6 -101 -13 -101
-23 0 -10 230 17 315 16 50 19 34 8 -43z m221 20 c32 -34 22 -39 -28 -15 -22
11 -47 20 -54 21 -17 1 22 17 43 18 8 1 26 -10 39 -24z m-7784 -33 c25 -20
144 -161 144 -171 0 -3 -4 -12 -9 -20 -8 -12 -15 -8 -37 20 -15 19 -58 64 -96
101 -39 37 -67 72 -63 78 9 15 37 12 61 -8z m3 -129 c89 -95 113 -143 91 -183
-12 -23 -13 -22 -33 29 -19 53 -78 122 -140 166 -24 17 -28 25 -22 48 4 15 10
27 14 27 4 0 45 -39 90 -87z m7412 25 c-17 -18 -31 -37 -31 -41 0 -5 -4 -5
-10 -2 -16 10 -12 19 27 65 28 33 39 40 41 27 2 -9 -10 -31 -27 -49z m-150 -9
l-9 -54 -1 51 c0 28 2 54 6 57 12 13 13 0 4 -54z m629 -28 c22 -81 4 -83 -28
-3 -13 31 -26 64 -29 72 -3 8 6 4 20 -9 15 -14 31 -41 37 -60z m-727 0 c-4 -3
-12 -13 -18 -22 -5 -9 -27 -38 -47 -65 -21 -27 -49 -80 -64 -119 -14 -38 -30
-80 -35 -92 -5 -13 -16 -23 -25 -23 -13 0 -15 6 -9 33 4 17 8 52 9 77 3 67 29
111 114 192 71 67 77 71 80 49 2 -13 0 -26 -5 -30z m-7274 -21 c24 -11 49 -20
57 -20 16 0 94 -136 94 -166 0 -21 -39 -63 -76 -82 -31 -16 -88 3 -129 44 -36
36 -60 100 -68 186 -4 44 -3 47 22 51 49 8 56 7 100 -13z m7272 -66 c-6 -21
-8 -49 -4 -62 7 -30 -17 -53 -47 -45 -24 6 -24 12 -5 37 8 11 15 26 15 33 0
14 43 84 48 78 2 -2 -1 -20 -7 -41z m-6998 16 c-3 -11 -12 -20 -19 -20 -16 0
-16 2 -8 24 9 24 33 20 27 -4z m7217 -60 c-8 -5 -19 -10 -25 -10 -5 0 -3 5 5
10 8 5 20 10 25 10 6 0 3 -5 -5 -10z m-261 -114 c-12 -14 -27 -26 -33 -26 -6
0 -3 5 7 11 9 5 17 16 17 24 0 7 6 15 13 18 20 7 20 0 -4 -27z m-5645 -17 c3
-17 6 -53 6 -80 0 -43 -3 -49 -20 -49 -25 0 -27 5 -34 93 -6 66 -6 67 17 67
19 0 26 -7 31 -31z m4151 -28 c26 -9 23 -10 -20 -7 -27 2 -42 2 -32 -1 12 -3
17 -15 17 -43 0 -21 -5 -42 -11 -45 -6 -4 -8 -13 -5 -21 7 -19 -33 -18 -104 1
-30 8 -68 18 -85 21 -34 6 -46 14 -21 14 11 0 15 5 12 13 -3 6 -9 20 -12 30
-4 9 -11 17 -16 17 -5 0 -6 5 -3 10 3 6 25 11 48 11 l42 2 -40 8 c-24 4 7 6
80 3 66 -2 134 -8 150 -13z m-791 -7 c7 -18 8 -80 2 -73 -10 9 -24 89 -16 89
4 0 11 -7 14 -16z m1440 -19 c20 -15 44 -41 52 -58 18 -34 45 -119 39 -125 -2
-2 -70 -8 -151 -13 -130 -9 -150 -8 -160 5 -10 14 -14 14 -43 0 -41 -20 -61
-12 -61 25 0 46 15 76 60 121 85 85 188 103 264 45z m1230 -2 c-4 -16 -20 -55
-36 -88 -15 -33 -28 -65 -28 -71 0 -6 -6 -17 -14 -23 -27 -22 -28 -102 -3
-189 26 -88 24 -111 -3 -59 -31 58 -42 125 -34 211 7 85 16 109 72 193 38 58
56 68 46 26z m571 -33 c3 -5 -3 -10 -14 -10 -12 0 -21 5 -21 10 0 6 6 10 14
10 8 0 18 -4 21 -10z m-6045 -69 c0 -14 -6 -17 -24 -14 -13 3 -33 0 -44 -6
-21 -11 -52 -6 -52 9 0 9 62 27 98 29 15 1 22 -5 22 -18z m5340 10 c0 -32
-135 -112 -161 -95 -31 19 81 94 154 103 4 1 7 -3 7 -8z m517 -13 c-3 -8 -6
-5 -6 6 -1 11 2 17 5 13 3 -3 4 -12 1 -19z m-5967 -48 c32 -28 57 -40 46 -22
-3 5 19 16 48 26 44 15 58 16 96 6 l45 -13 -63 -28 c-34 -16 -70 -26 -80 -22
-14 5 -15 3 -4 -8 6 -7 12 -26 12 -42 0 -25 -3 -27 -22 -21 -62 19 -188 97
-188 116 0 16 32 37 55 37 11 0 36 -13 55 -29z m3203 3 c5 -3 1 -14 -9 -24
-13 -14 -31 -19 -71 -19 -29 0 -53 3 -53 8 0 4 -18 6 -39 4 -70 -7 -81 1 -36
26 35 20 49 22 120 16 44 -3 84 -8 88 -11z m227 7 c0 -5 -4 -10 -10 -10 -19 0
-10 -17 17 -29 23 -11 25 -10 14 3 -34 40 25 61 79 29 25 -14 27 -20 18 -37
-6 -12 -18 -29 -26 -39 -15 -16 -17 -16 -41 5 -22 20 -23 20 -8 2 18 -21 23
-54 9 -54 -5 0 -21 14 -38 31 -41 43 -76 59 -129 59 -53 0 -58 15 -12 35 37
16 127 20 127 5z m-3580 -9 c0 -25 59 -73 128 -106 86 -41 112 -60 112 -84 0
-14 -26 -15 -262 -10 -145 3 -264 6 -265 7 -2 1 -3 45 -3 97 l0 94 123 4 c67
1 132 4 145 5 12 1 22 -2 22 -7z m3891 -42 c10 -5 31 -10 46 -11 38 -3 43 -13
43 -84 0 -56 -2 -62 -22 -68 -13 -3 -164 -6 -336 -6 -282 0 -313 2 -319 17 -9
23 32 96 66 116 60 35 166 12 225 -50 l28 -30 66 68 67 68 60 -5 c32 -3 67
-10 76 -15z m905 -45 c-3 -36 3 -80 15 -122 23 -80 22 -72 6 -72 -22 0 -46 33
-49 68 -1 17 -8 34 -15 36 -19 8 -16 33 5 45 16 10 16 12 0 25 -24 18 -23 26
5 27 22 1 22 1 -2 8 -19 5 -21 8 -10 17 12 9 25 16 46 23 2 1 1 -24 -1 -55z
m-4329 16 c38 -23 60 -55 69 -98 l7 -32 -142 0 c-135 0 -141 1 -141 20 0 47
29 90 72 110 55 25 95 25 135 0z m2798 -12 c4 -3 -4 -36 -17 -72 l-23 -67
-100 7 c-55 4 -102 8 -104 10 -10 9 21 83 45 109 25 27 28 27 110 23 46 -2 86
-7 89 -10z m2015 3 c0 -14 -30 -22 -110 -28 -90 -7 -86 5 7 22 88 16 103 17
103 6z m820 -51 c0 -28 11 -78 25 -116 34 -90 31 -92 -10 -9 -36 72 -52 133
-42 160 13 32 27 13 27 -35z m-1630 14 c-151 -15 -176 -16 -166 -6 10 9 112
19 211 19 76 0 74 0 -45 -13z m-220 -13 c-17 -10 -47 -15 -70 -11 -8 2 3 6 25
10 58 10 62 10 45 1z m1283 -74 c30 -76 31 -81 17 -72 -5 3 -10 1 -10 -6 0
-20 -32 13 -46 48 -10 23 -11 40 -4 58 10 27 5 30 -47 25 -13 -1 -23 4 -23 10
0 7 15 10 43 8 42 -3 42 -3 70 -71z m-193 3 c0 -46 -30 -49 -44 -3 -5 15 -2
24 11 31 24 14 33 6 33 -28z m-820 0 c-84 -21 -213 -37 -150 -20 80 23 157 38
190 38 26 0 16 -5 -40 -18z m-3974 -82 l1 -37 -51 -5 c-28 -4 -215 -3 -416 1
l-365 8 -3 38 -3 37 418 -2 418 -3 1 -37z m3751 36 c-3 -3 -12 -4 -19 -1 -8 3
-5 6 6 6 11 1 17 -2 13 -5z m2063 -14 c0 -5 -5 -10 -11 -10 -5 0 -7 5 -4 10 3
6 8 10 11 10 2 0 4 -4 4 -10z m-428 -22 c-7 -7 -12 -8 -12 -2 0 14 12 26 19
19 2 -3 -1 -11 -7 -17z m383 -8 c-3 -5 -19 -10 -35 -10 -16 0 -32 5 -35 10 -4
6 10 10 35 10 25 0 39 -4 35 -10z m-1085 -59 c0 -14 -1 -14 -10 -1 -6 10 -10
11 -10 3 0 -21 -17 -14 -23 9 -8 29 14 43 31 21 6 -9 12 -24 12 -32z m648 -78
c-10 -2 -28 -2 -40 0 -13 2 -5 4 17 4 22 1 32 -1 23 -4z"/>
<path d="M4228 7098 c-2 -7 8 -35 24 -63 15 -27 28 -45 28 -40 0 6 -11 29 -24
52 -17 30 -21 44 -13 52 8 8 8 11 0 11 -6 0 -13 -6 -15 -12z"/>
<path d="M4063 6771 c-79 -20 -117 -78 -73 -113 12 -10 34 -18 49 -18 53 0
158 -32 244 -72 69 -33 92 -40 105 -31 42 26 22 80 -55 145 -81 69 -196 107
-270 89z"/>
<path d="M2560 6578 c-122 -43 -226 -128 -294 -241 -45 -76 -61 -142 -47 -194
11 -40 45 -93 60 -93 5 0 11 29 13 64 21 256 317 432 567 337 74 -28 153 -84
186 -130 15 -23 30 -41 33 -41 2 0 2 19 -2 42 -16 96 -99 197 -206 246 -80 38
-218 42 -310 10z"/>
<path d="M2697 6420 c-56 -14 -144 -77 -182 -129 -75 -102 -93 -274 -41 -387
46 -103 121 -156 238 -170 190 -22 348 143 348 365 0 105 -21 172 -73 228 -75
82 -189 118 -290 93z m288 -437 c31 -34 31 -52 4 -87 -17 -22 -27 -26 -48 -21
-68 17 -95 95 -41 122 38 19 57 16 85 -14z"/>
<path d="M3914 6231 c-87 -40 -145 -122 -171 -245 -33 -157 17 -300 125 -359
53 -29 127 -36 176 -17 81 30 167 166 185 292 23 166 -54 310 -181 337 -67 15
-86 14 -134 -8z m213 -399 c17 -11 34 -59 27 -77 -13 -33 -104 -7 -104 29 0
38 47 67 77 48z"/>
<path d="M1426 6009 c-14 -11 -33 -34 -41 -49 -16 -32 -20 -96 -6 -104 4 -3
11 -25 15 -48 7 -46 35 -97 75 -141 64 -70 163 -87 251 -42 28 14 50 29 50 33
0 18 -62 165 -86 204 -60 98 -103 145 -143 156 -55 17 -85 15 -115 -9z"/>
<path d="M3040 5663 c-95 -16 -151 -68 -170 -158 -34 -163 73 -360 237 -438
64 -30 74 -32 183 -32 111 0 118 1 185 34 51 25 93 57 151 115 98 99 129 156
129 242 0 106 -32 125 -307 183 -254 55 -339 66 -408 54z m150 -58 c221 -32
449 -87 457 -112 2 -6 -17 -21 -42 -33 -44 -21 -50 -22 -148 -10 -199 23 -338
61 -430 118 -43 26 -43 31 5 42 46 11 42 11 158 -5z"/>
<path d="M8135 5251 c-16 -10 -44 -34 -62 -52 -46 -49 -113 -183 -113 -225 0
-33 4 -37 55 -60 57 -26 115 -29 123 -6 2 7 -5 12 -16 12 -26 0 -32 36 -17 97
15 60 42 65 66 13 15 -30 15 -38 3 -55 -20 -28 -19 -69 2 -61 9 3 17 6 19 6 2
0 19 22 38 49 27 38 33 52 24 61 -9 10 -8 12 6 7 12 -5 20 -1 24 11 3 9 17 31
30 49 l23 32 -21 53 c-11 29 -28 61 -36 71 -22 24 -108 23 -148 -2z m132 -193
c-3 -8 -6 -5 -6 6 -1 11 2 17 5 13 3 -3 4 -12 1 -19z"/>
<path d="M6770 4983 c0 -17 -76 -87 -115 -104 -84 -39 -194 -14 -262 57 -63
67 -89 13 -27 -56 72 -79 215 -104 319 -54 66 31 127 98 123 134 -3 22 -38 44
-38 23z"/>
<path d="M1060 5040 c-12 -7 -12 -12 -3 -21 10 -10 14 -9 19 5 8 22 2 27 -16
16z"/>
<path d="M4315 5006 c-29 -29 -33 -59 -8 -54 22 4 58 64 44 73 -6 3 -22 -5
-36 -19z"/>
<path d="M4445 4910 c-43 -68 -50 -89 -36 -103 10 -9 15 -8 26 7 8 10 16 23
18 29 7 21 27 -5 27 -34 0 -33 16 -39 25 -9 9 27 22 17 31 -23 l7 -32 13 30
c13 29 13 29 14 5 1 -19 6 -13 20 25 29 73 27 85 -14 85 -19 0 -39 -7 -47 -16
-12 -15 -15 -12 -24 26 -6 24 -16 45 -22 47 -7 3 -24 -14 -38 -37z m134 -57
c0 -5 -4 -17 -9 -28 -8 -18 -9 -17 -9 8 -1 15 4 27 9 27 6 0 10 -3 9 -7z"/>
<path d="M4277 4913 c-13 -12 -7 -23 13 -23 11 0 20 7 20 15 0 15 -21 21 -33
8z"/>
<path d="M4255 4824 c-9 -14 -14 -29 -10 -32 7 -7 45 34 45 49 0 17 -18 9 -35
-17z"/>
<path d="M4637 4829 c-16 -12 -29 -35 -33 -56 -6 -33 -3 -40 29 -70 52 -47 71
-43 102 17 31 61 31 84 3 102 -42 27 -74 29 -101 7z m54 -29 c22 -12 24 -28 7
-65 -13 -30 -33 -32 -48 -6 -13 26 -13 54 2 69 15 15 15 15 39 2z"/>
<path d="M4785 4714 c1 -70 4 -88 18 -96 13 -7 25 -3 48 16 39 33 79 81 79 95
0 21 -44 11 -72 -16 l-28 -27 0 30 c0 32 -19 76 -35 81 -7 2 -11 -27 -10 -83z"/>
<path d="M4219 4748 c-1 -21 -7 -52 -15 -78 -12 -45 12 -8 29 43 14 40 14 47
1 47 -8 0 -14 -6 -15 -12z"/>
<path d="M4331 4713 c-30 -36 -71 -128 -71 -158 0 -18 49 -20 54 -2 2 6 8 28
13 47 l9 35 13 -40 c20 -59 28 -64 56 -30 l25 30 -6 -30 c-4 -16 -11 -38 -15
-47 -12 -23 0 -50 20 -46 9 2 21 22 29 48 7 25 22 64 33 88 10 23 19 49 19 57
0 26 -47 17 -78 -15 -34 -33 -36 -31 -47 44 -4 25 -11 48 -15 51 -5 3 -22 -12
-39 -32z"/>
<path d="M4945 4698 c-4 -11 -21 -44 -37 -71 -23 -39 -26 -52 -16 -58 23 -15
27 -11 64 62 28 57 33 74 22 80 -20 13 -26 11 -33 -13z"/>
<path d="M5010 4683 c0 -10 -15 -46 -34 -79 l-33 -62 51 -21 c28 -11 57 -21
64 -21 24 0 11 28 -18 40 -16 7 -30 19 -30 26 0 17 41 19 58 2 14 -14 14 -14
34 39 18 48 16 51 -46 77 -47 20 -46 20 -46 -1z m78 -61 c3 -16 -2 -22 -17
-22 -26 0 -36 17 -20 36 16 19 33 13 37 -14z"/>
<path d="M4135 4659 c-4 -13 -12 -18 -22 -15 -11 5 -13 2 -9 -9 3 -9 0 -24 -6
-35 -7 -10 -9 -22 -5 -26 4 -4 8 -5 10 -3 22 37 53 109 47 109 -5 0 -12 -9
-15 -21z"/>
<path d="M4171 4598 c-18 -22 -21 -32 -12 -41 16 -16 43 14 39 45 l-3 25 -24
-29z"/>
<path d="M4524 4586 c-30 -30 -34 -40 -34 -84 0 -44 4 -53 28 -71 48 -34 75
-35 109 -7 60 51 61 151 2 181 -43 23 -68 18 -105 -19z m90 -32 c35 -34 8
-104 -40 -104 -28 0 -36 12 -37 55 -2 57 42 85 77 49z"/>
<path d="M5217 4583 c-13 -12 -7 -23 13 -23 11 0 20 7 20 15 0 15 -21 21 -33
8z"/>
<path d="M4700 4520 c0 -21 -5 -62 -11 -90 -9 -40 -8 -55 1 -63 10 -9 14 -9
17 1 7 19 23 14 23 -6 0 -11 12 -24 26 -31 22 -10 26 -9 21 3 -4 9 -2 18 4 22
6 3 4 11 -7 18 -23 17 -7 44 45 81 46 31 50 41 21 50 -13 4 -31 -2 -53 -19
-19 -14 -37 -26 -40 -26 -4 0 -7 23 -7 50 0 43 -3 50 -20 50 -17 0 -20 -7 -20
-40z"/>
<path d="M4116 4502 c-8 -14 6 -53 18 -49 18 6 20 57 2 57 -8 0 -17 -4 -20 -8z"/>
<path d="M5180 4496 c0 -22 19 -29 36 -15 12 10 12 14 2 20 -20 13 -38 10 -38
-5z"/>
<path d="M4865 4423 c-11 -31 -29 -71 -41 -88 -21 -32 -21 -32 -2 -44 11 -7
22 -11 24 -9 1 2 17 37 35 78 17 41 36 80 41 87 6 8 3 15 -11 22 -11 6 -21 11
-23 11 -2 0 -13 -26 -23 -57z"/>
<path d="M4950 4448 c0 -19 -55 -147 -69 -161 -6 -6 -11 -14 -11 -18 0 -11
101 -51 116 -45 25 9 15 32 -21 49 -49 23 -44 37 15 37 37 0 50 4 50 15 0 8
-11 17 -25 21 -16 4 -25 13 -25 26 0 17 4 19 28 14 47 -11 55 -11 59 1 5 13
-57 57 -94 68 -16 4 -23 2 -23 -7z"/>
<path d="M5147 4388 c-2 -13 -8 -32 -11 -43 l-8 -20 13 20 c7 11 15 22 19 25
15 11 19 40 6 40 -8 0 -16 -10 -19 -22z"/>
<path d="M4446 4334 c-14 -15 -26 -36 -26 -48 0 -19 2 -19 25 7 29 30 68 35
99 12 16 -12 17 -19 9 -38 -6 -13 -14 -49 -18 -79 l-7 -55 37 -7 c20 -4 39
-14 42 -22 3 -7 9 -14 14 -14 13 0 11 34 -3 65 -17 38 5 76 41 69 18 -4 32 0
40 10 14 16 13 17 -57 41 -7 3 -23 -2 -36 -10 -27 -18 -38 -10 -30 20 4 17 -2
27 -23 42 -49 34 -77 36 -107 7z"/>
<path d="M5097 4283 c-19 -36 -11 -48 17 -27 15 11 17 18 9 36 -10 23 -10 23
-26 -9z"/>
<path d="M4423 4238 c5 -14 1 -18 -18 -18 -50 0 -19 -37 39 -47 27 -4 36 -2
36 9 0 16 -16 37 -44 58 -18 14 -19 13 -13 -2z"/>
<path d="M4707 4188 c-30 -45 -57 -98 -57 -114 0 -4 52 -27 88 -38 32 -11 29
27 -3 42 -26 12 -34 42 -11 42 7 0 19 -7 26 -15 25 -30 34 1 12 37 -27 43 -15
73 17 44 11 -10 25 -15 32 -10 7 4 18 -1 26 -11 7 -11 13 -13 13 -6 0 7 4 10
9 6 11 -6 3 -39 -28 -109 -17 -38 -19 -51 -9 -57 18 -11 33 5 62 66 24 51 27
54 51 45 19 -7 25 -6 25 5 0 15 -66 65 -87 65 -7 0 -34 14 -60 30 -26 17 -52
30 -58 30 -7 0 -28 -24 -48 -52z"/>
<path d="M5055 4200 c-10 -11 -15 -23 -12 -26 9 -10 59 25 52 36 -9 15 -20 12
-40 -10z"/>
<path d="M5010 4104 c-6 -14 -10 -37 -10 -52 0 -25 2 -24 29 17 17 25 28 48
25 53 -11 17 -35 7 -44 -18z"/>
<path d="M4962 3990 c-25 -24 -32 -71 -8 -51 12 10 40 71 32 71 -1 0 -12 -9
-24 -20z"/>
<path d="M7210 4186 c0 -14 2 -26 4 -26 2 0 12 -3 21 -6 13 -6 16 -1 13 22 -4
38 -38 47 -38 10z"/>
<path d="M5870 4120 c-14 -26 -5 -40 26 -40 22 0 25 4 22 27 -4 34 -32 42 -48
13z"/>
<path d="M7226 4084 c-19 -18 -20 -36 -4 -52 22 -22 38 -13 38 22 0 41 -12 52
-34 30z"/>
<path d="M5867 3998 c-7 -25 7 -38 41 -38 18 0 22 6 22 30 0 26 -3 30 -29 30
-21 0 -30 -6 -34 -22z"/>
<path d="M5880 3885 c-18 -21 -5 -45 24 -45 25 0 44 30 31 50 -9 15 -41 12
-55 -5z"/>
<path d="M6975 3891 l-50 -6 -3 -137 -3 -138 91 0 91 0 -3 28 c-3 26 -6 27
-60 30 -53 3 -58 5 -58 26 0 25 21 36 72 36 18 0 29 7 33 20 10 31 -2 40 -56
40 -41 0 -49 3 -49 19 0 23 19 31 75 31 32 0 44 4 47 18 11 43 -6 47 -127 33z"/>
<path d="M6574 3875 c-5 -13 6 -47 68 -212 39 -102 56 -92 117 74 48 132 50
153 18 153 -19 0 -27 -12 -53 -92 l-31 -92 -20 39 c-11 22 -28 64 -37 93 -13
39 -22 52 -37 52 -11 0 -22 -7 -25 -15z"/>
<path d="M6828 3753 c2 -76 8 -142 12 -147 5 -5 16 -6 24 -3 14 5 16 29 16
147 l0 140 -28 0 -28 0 4 -137z"/>
<path d="M6376 3855 c-70 -64 -73 -156 -7 -227 21 -24 33 -28 75 -28 54 1 68
8 104 54 39 51 26 142 -31 204 -30 32 -104 31 -141 -3z m123 -71 c28 -36 26
-66 -5 -103 -35 -42 -68 -41 -94 2 -30 48 -26 90 11 121 34 29 53 25 88 -20z"/>
<path d="M6050 3851 c-5 -11 -10 -76 -10 -145 l0 -126 30 0 29 0 3 78 3 77 22
-47 c12 -27 26 -48 32 -48 5 0 24 24 43 53 l33 52 3 -72 c3 -75 16 -99 47 -87
15 6 16 18 11 103 -11 166 -14 181 -39 181 -16 0 -30 -14 -50 -45 -15 -25 -27
-50 -27 -55 0 -19 -15 -9 -37 23 -30 44 -62 77 -73 77 -5 0 -14 -9 -20 -19z"/>
<path d="M5886 3761 c-9 -14 10 -57 29 -64 20 -8 29 14 21 48 -6 25 -39 35
-50 16z"/>
<path d="M5900 3625 c7 -8 17 -15 22 -15 6 0 5 7 -2 15 -7 8 -17 15 -22 15 -6
0 -5 -7 2 -15z"/>
<path d="M5892 3563 c2 -26 8 -38 18 -38 20 0 25 42 6 60 -23 23 -27 18 -24
-22z"/>
<path d="M6710 3531 c-77 -7 -75 -1 -65 -158 l7 -113 79 0 c78 0 79 0 79 25 0
24 -3 25 -55 25 -52 0 -55 1 -55 24 0 22 5 25 43 28 38 3 42 6 45 31 3 26 2
27 -43 27 -45 0 -46 1 -43 28 3 25 7 27 51 30 45 3 47 5 47 33 0 17 -5 28 -12
27 -7 -1 -42 -4 -78 -7z"/>
<path d="M6893 3533 c-59 -4 -63 -5 -63 -28 0 -21 5 -25 30 -25 l29 0 3 -102
c3 -98 4 -103 26 -106 19 -3 22 1 24 35 1 21 0 66 -1 101 l-3 62 32 0 c29 0
31 2 28 33 -3 36 -4 36 -105 30z"/>
<path d="M6540 3480 c-24 -27 -47 -50 -52 -50 -4 0 -8 20 -8 45 0 38 -3 45
-19 45 -25 0 -27 -11 -21 -144 5 -106 6 -111 28 -114 20 -3 22 1 22 42 0 60
16 59 60 -4 36 -51 45 -56 69 -41 12 8 7 21 -27 72 -23 34 -42 70 -42 79 0 9
16 34 35 56 19 21 33 44 32 49 -8 24 -36 12 -77 -35z"/>
<path d="M7045 3505 c-44 -43 -25 -104 40 -125 40 -13 47 -43 14 -60 -16 -9
-24 -8 -39 5 -10 9 -24 14 -29 10 -19 -11 -12 -44 14 -61 74 -48 183 59 124
122 -12 13 -37 28 -55 34 -35 12 -45 36 -20 46 8 3 23 1 34 -5 23 -12 52 -5
52 14 0 46 -95 61 -135 20z"/>
<path d="M6160 3380 c0 -123 1 -130 20 -130 19 0 20 7 20 130 0 123 -1 130
-20 130 -19 0 -20 -7 -20 -130z"/>
<path d="M6285 3488 c-33 -26 -55 -75 -55 -121 0 -67 72 -122 140 -108 29 5
36 12 38 35 l4 28 -50 -7 c-44 -6 -52 -4 -61 14 -16 30 -13 97 5 115 18 19 38
20 66 5 29 -16 45 3 30 36 -9 20 -19 25 -50 25 -25 0 -49 -8 -67 -22z"/>
<path d="M5977 3493 c-4 -3 -7 -17 -7 -30 0 -19 5 -23 31 -23 l32 0 -6 -51
c-9 -78 1 -139 24 -139 17 0 19 9 19 100 l0 100 30 0 c25 0 30 4 30 25 0 24
-2 25 -73 25 -41 0 -77 -3 -80 -7z"/>
<path d="M5870 3435 c-12 -31 -3 -55 20 -55 22 0 34 31 25 60 -9 28 -34 25
-45 -5z"/>
<path d="M7266 3308 c-10 -40 -7 -68 9 -68 11 0 15 12 15 45 0 48 -14 60 -24
23z"/>
<path d="M5870 3294 c-7 -17 -7 -32 0 -45 20 -36 40 -15 40 42 0 37 -27 39
-40 3z"/>
<path d="M7477 3105 c-47 -47 -40 -133 14 -160 74 -39 149 7 149 92 0 35 -5
49 -26 68 -38 35 -102 35 -137 0z"/>
<path d="M7737 2853 c-4 -3 -7 -30 -7 -59 0 -42 -4 -55 -19 -64 -29 -15 -77
-12 -91 5 -17 20 -30 10 -30 -24 0 -40 19 -52 72 -45 l46 6 7 -38 c8 -51 28
-76 56 -72 27 4 51 38 31 45 -20 8 -44 63 -38 88 4 15 22 29 56 44 60 26 65
49 19 92 -30 28 -85 40 -102 22z"/>
<path d="M8094 2810 c-65 -26 -88 -130 -38 -169 40 -32 95 -28 132 9 39 38 47
72 27 114 -23 48 -71 67 -121 46z"/>
<path d="M7518 2645 c6 -11 23 -31 39 -45 l28 -25 -30 35 c-47 55 -48 56 -37
35z"/>
<path d="M8420 2548 c-15 -21 -17 -28 -6 -19 16 13 41 51 33 51 -2 0 -14 -15
-27 -32z"/>
<path d="M8318 2446 c-78 -62 -92 -79 -41 -52 34 18 130 102 123 108 -3 3 -40
-22 -82 -56z"/>
<path d="M8742 3040 c14 -19 28 -46 31 -60 9 -39 -9 -99 -43 -141 -36 -45 -31
-51 10 -11 34 32 56 103 46 153 -4 21 -19 48 -38 65 l-31 29 25 -35z"/>
<path d="M7570 2240 c0 -5 5 -10 11 -10 5 0 7 5 4 10 -3 6 -8 10 -11 10 -2 0
-4 -4 -4 -10z"/>
<path d="M5384 8181 c-20 -12 -38 -36 -49 -64 -29 -75 -4 -151 85 -262 77 -96
120 -96 239 1 83 68 101 97 101 164 0 58 -19 97 -56 121 -37 22 -63 22 -122
-2 -32 -13 -35 -13 -55 13 -22 27 -64 48 -95 48 -9 0 -31 -9 -48 -19z m103
-63 c8 -6 11 -18 8 -27 -3 -8 -3 -13 0 -9 3 3 17 -4 30 -16 15 -13 20 -23 12
-28 -19 -12 10 -36 38 -30 15 2 25 0 25 -7 0 -7 5 -9 10 -6 15 9 12 45 -4 45
-23 0 -31 22 -12 35 9 7 31 12 49 11 29 -1 32 -5 39 -44 4 -23 10 -47 14 -54
4 -7 3 -8 -4 -4 -7 4 -12 1 -12 -8 0 -9 -9 -16 -20 -16 -11 0 -20 -5 -20 -11
0 -5 5 -7 12 -3 29 18 -23 -39 -61 -67 -42 -30 -89 -36 -83 -11 1 6 -2 11 -7
10 -16 -5 -80 62 -102 103 -10 21 -22 59 -25 83 -6 38 -3 45 17 60 25 18 71
15 96 -6z"/>
<path d="M8889 7846 c-179 -48 -308 -244 -284 -431 10 -80 59 -184 114 -241
40 -41 66 -57 138 -84 114 -44 189 -49 280 -21 83 25 193 105 234 169 84 132
80 307 -8 435 -31 45 -119 120 -172 146 -78 40 -212 52 -302 27z m200 -57
c191 -44 316 -217 281 -392 -15 -80 -40 -127 -93 -177 -105 -103 -249 -136
-386 -90 -105 35 -183 129 -217 260 -37 143 33 307 158 371 72 37 172 48 257
28z"/>
<path d="M8853 7629 c-18 -11 -34 -28 -37 -37 -28 -100 -8 -167 77 -264 34
-39 69 -76 79 -81 22 -14 164 70 218 130 83 89 71 191 -28 242 -28 15 -72 6
-106 -20 l-25 -19 -28 26 c-52 49 -99 56 -150 23z"/>
<path d="M855 4049 c-52 -15 -104 -66 -116 -113 l-10 -42 -58 4 c-114 8 -200
-58 -202 -155 -4 -169 107 -276 315 -304 102 -13 174 -8 210 16 51 34 136 253
136 351 0 65 -34 144 -82 191 -63 61 -115 75 -193 52z m102 -70 c27 -11 27
-12 -29 -23 -70 -15 -83 -25 -103 -87 -24 -70 -40 -75 -31 -9 10 73 30 108 69
119 44 13 61 13 94 0z m-261 -153 c18 -14 18 -15 -11 -21 -90 -20 -124 -49
-125 -104 0 -49 -18 -27 -21 26 -3 45 9 66 56 95 36 22 74 23 101 4z"/>
<path d="M4733 3457 c-32 -22 -50 -43 -58 -67 -11 -33 -15 -35 -63 -41 -55 -7
-90 -26 -128 -66 -21 -22 -25 -23 -68 -12 -40 10 -50 9 -88 -10 -24 -11 -67
-44 -96 -72 -50 -49 -52 -53 -52 -104 0 -46 -4 -56 -27 -75 -15 -12 -40 -24
-55 -27 -32 -6 -77 -48 -79 -72 -1 -9 -2 -38 -3 -66 -1 -50 -1 -50 -43 -63
-62 -20 -106 -78 -101 -134 3 -39 1 -42 -28 -50 -57 -15 -60 -25 -40 -166 39
-286 65 -446 139 -877 19 -110 39 -225 43 -255 9 -53 10 -55 42 -58 17 -2 32
0 32 5 0 4 -21 125 -45 268 -25 143 -59 355 -76 470 -16 116 -32 218 -35 227
-3 10 -14 84 -24 165 -14 112 -16 149 -7 155 7 4 33 8 58 8 l45 0 13 -132 c7
-73 25 -209 41 -303 16 -93 31 -199 35 -235 6 -65 39 -290 73 -510 l18 -115
67 -3 67 -3 0 42 c0 23 -6 87 -14 143 -8 55 -22 155 -30 221 -14 108 -25 203
-81 700 -8 77 -15 152 -15 168 l0 27 85 0 c101 0 89 23 110 -215 34 -384 57
-618 75 -765 10 -85 22 -192 26 -237 l7 -83 84 0 85 0 -6 58 c-3 31 -10 156
-16 277 -6 121 -18 327 -26 457 -8 130 -14 300 -14 377 l0 141 88 0 89 0 6
-222 c4 -123 10 -418 14 -655 l6 -433 82 0 82 0 12 193 c6 105 16 396 21 646
6 250 11 456 13 457 2 2 40 6 85 10 72 6 82 5 88 -10 4 -10 2 -111 -5 -224
-18 -327 -29 -554 -36 -732 -5 -148 -18 -273 -31 -322 -5 -16 3 -18 75 -18
l80 0 5 43 c3 23 10 125 16 227 26 451 62 921 76 998 l6 32 80 0 81 0 -7 -92
c-4 -51 -15 -176 -26 -278 -10 -102 -24 -270 -30 -375 -6 -104 -18 -246 -26
-315 -9 -69 -18 -151 -21 -182 l-6 -58 67 0 66 0 0 -55 c0 -57 3 -61 48 -49
38 11 54 96 127 679 30 243 48 371 81 578 23 146 24 161 9 183 -8 13 -27 27
-41 30 -21 5 -24 11 -19 31 11 46 -12 88 -63 116 l-48 26 4 59 c4 57 3 61 -32
100 -25 28 -50 43 -81 51 l-45 11 6 43 c4 32 0 51 -18 82 -30 51 -61 67 -115
59 -41 -6 -43 -5 -43 19 0 45 -39 78 -116 98 -38 10 -83 18 -101 18 -29 1 -33
5 -43 41 -6 24 -29 59 -53 85 l-43 44 -72 0 c-64 0 -77 -4 -119 -32z m178 -33
c10 -12 10 -20 1 -35 -11 -17 -9 -19 11 -19 13 0 28 -5 35 -12 16 -16 15 -83
0 -96 -17 -13 -60 -18 -75 -9 -6 4 -28 -2 -47 -14 -52 -30 -82 -20 -106 37
-25 58 -25 85 1 118 19 24 26 27 60 21 31 -5 40 -3 45 9 8 21 58 21 75 0z
m-252 -140 c16 -12 22 -23 18 -40 -3 -17 3 -28 19 -39 13 -9 24 -21 24 -28 0
-9 11 -12 34 -9 27 3 37 -1 55 -23 11 -15 21 -33 21 -39 1 -19 49 -68 61 -61
7 5 4 14 -8 29 -10 11 -28 35 -40 52 l-21 30 51 23 c35 17 61 22 88 18 30 -4
39 -2 39 10 0 8 8 28 17 44 22 38 54 37 86 -1 23 -27 27 -28 57 -17 29 11 33
10 51 -12 25 -31 24 -43 -6 -79 -31 -37 -32 -47 -1 -27 18 12 29 13 51 5 20
-7 31 -8 39 0 14 14 59 13 81 -4 13 -9 18 -25 17 -52 -2 -46 -29 -73 -76 -75
-17 -1 -24 -3 -15 -6 12 -3 15 -16 14 -56 -1 -29 4 -76 11 -105 14 -64 -4
-142 -43 -183 l-25 -27 -206 0 c-113 0 -211 2 -217 6 -5 4 -70 7 -143 7 l-134
0 -21 38 -22 39 23 15 c12 9 22 23 22 32 0 28 29 60 63 69 37 10 87 -9 87 -33
0 -9 9 -15 24 -15 29 0 46 -19 56 -64 6 -26 4 -36 -6 -40 -27 -10 -14 -21 26
-21 49 -1 52 15 16 92 -19 40 -36 59 -80 87 -31 20 -67 36 -79 36 -31 0 -47
18 -47 52 0 15 -2 28 -4 28 -2 0 -13 3 -23 6 -15 6 -16 4 -5 -7 23 -24 13 -72
-19 -98 -26 -20 -33 -22 -53 -11 -19 10 -29 9 -55 -5 -30 -15 -34 -15 -57 0
-14 9 -29 26 -33 38 -24 64 -24 64 32 122 29 30 61 55 70 55 9 0 41 -11 72
-24 l55 -25 0 35 c0 29 4 34 23 34 22 0 87 34 87 46 0 3 -12 3 -27 -1 -16 -4
-35 -8 -43 -9 -8 -1 -24 -7 -36 -14 -44 -23 -94 6 -114 68 -17 50 0 88 42 97
15 3 34 16 43 29 18 28 51 31 84 8z m-249 -78 c6 -8 10 -26 8 -39 -1 -13 5
-31 14 -41 15 -14 15 -20 4 -48 -17 -40 -38 -51 -102 -51 -67 0 -104 22 -104
62 0 32 32 66 55 58 9 -4 15 -1 15 7 0 7 9 25 21 40 23 29 69 35 89 12z m-85
-227 c4 -5 -1 -24 -10 -42 -8 -18 -14 -44 -13 -57 2 -18 -4 -28 -26 -38 -25
-13 -36 -12 -91 3 -50 13 -68 14 -85 5 -35 -19 -46 2 -24 47 17 33 23 38 54
38 27 0 37 5 47 26 11 23 18 26 78 27 35 0 67 -4 70 -9z m1114 -43 c6 -7 22
-11 36 -8 14 2 32 -1 40 -8 19 -16 45 -68 45 -91 0 -37 -71 -64 -98 -37 -9 9
-12 9 -12 0 0 -7 -16 -12 -40 -12 -36 0 -41 3 -60 40 -11 21 -20 50 -20 64 0
47 81 86 109 52z m-1082 -138 c28 -27 40 -32 85 -32 52 -1 53 -1 56 -34 2 -18
-1 -32 -7 -32 -14 0 -14 -35 -1 -59 8 -16 3 -19 -43 -25 -29 -3 -154 -6 -279
-6 l-228 0 -6 26 c-17 66 40 99 110 63 l41 -21 -25 26 c-23 26 -23 28 -8 54
27 45 90 66 127 43 12 -8 13 -16 3 -47 -10 -33 -9 -38 11 -55 42 -37 57 -42
57 -20 0 11 -4 23 -10 26 -14 9 -12 68 3 87 15 19 47 37 67 38 8 0 29 -14 47
-32z m1153 -71 c41 -1 89 -10 105 -18 26 -13 30 -20 28 -53 -2 -22 -4 -41 -6
-43 -2 -2 -80 -2 -173 -1 -144 3 -165 5 -141 15 29 13 30 15 47 80 10 40 12
41 38 32 15 -5 61 -10 102 -12z m200 -205 c0 -27 -46 -396 -75 -597 -13 -93
-36 -264 -50 -380 -14 -115 -32 -228 -40 -250 l-13 -40 -1 55 c-1 83 17 317
39 485 10 83 24 204 30 270 15 156 49 435 56 457 8 25 54 24 54 0z"/>
<path d="M5010 3170 c0 -5 7 -10 15 -10 8 0 15 5 15 10 0 6 -7 10 -15 10 -8 0
-15 -4 -15 -10z"/>
<path d="M5040 3130 c-9 -6 -10 -10 -3 -10 6 0 15 5 18 10 8 12 4 12 -15 0z"/>
<path d="M5157 3064 c-22 -29 -46 -30 -89 -4 -18 11 -45 20 -59 20 -39 0 -89
-20 -89 -36 0 -8 -6 -14 -14 -14 -7 0 -19 -14 -26 -30 -7 -17 -19 -34 -27 -39
-12 -6 -14 -20 -8 -67 7 -54 11 -62 51 -96 42 -35 46 -36 122 -36 43 0 89 -3
102 -7 18 -6 22 -4 17 7 -3 8 4 23 15 32 11 10 17 23 14 31 -2 7 2 16 10 19
11 4 12 10 4 25 -14 27 -13 36 3 23 8 -7 18 -7 27 -2 13 8 12 10 -2 10 -23 0
-108 112 -90 118 21 7 64 50 60 61 -1 5 -11 -2 -21 -15z m-106 -40 c29 -14 30
-18 24 -56 -6 -36 -5 -40 10 -34 41 15 58 -39 30 -94 -18 -36 -27 -37 -66 -9
-28 20 -31 20 -49 4 -29 -26 -82 -16 -98 18 -30 62 -32 87 -11 108 13 13 27
18 40 14 14 -5 19 -2 19 14 0 25 26 51 51 51 11 0 34 -7 50 -16z m67 -63 c3
-8 -1 -12 -9 -9 -7 2 -15 10 -17 17 -3 8 1 12 9 9 7 -2 15 -10 17 -17z"/>
<path d="M4650 2639 c0 -5 5 -7 10 -4 6 3 10 8 10 11 0 2 -4 4 -10 4 -5 0 -10
-5 -10 -11z"/>
<path d="M4085 2670 c-3 -6 5 -10 19 -10 14 0 28 5 31 10 3 6 -5 10 -19 10
-14 0 -28 -4 -31 -10z"/>
<path d="M3594 1747 c-9 -24 116 -207 142 -207 4 0 26 -17 48 -37 51 -48 28
-14 -40 57 -55 59 -124 157 -124 177 0 18 -19 26 -26 10z"/>
<path d="M2374 1467 c3 -10 6 -25 6 -32 0 -7 7 -15 15 -19 21 -8 18 15 -6 44
-15 18 -19 20 -15 7z"/>
<path d="M3850 1457 c0 -16 41 -163 50 -179 6 -10 10 -35 10 -56 0 -21 6 -44
13 -51 10 -11 10 -14 0 -18 -28 -10 -10 -23 32 -23 l45 0 -1 38 c-1 23 -3 28
-6 15 -8 -43 -47 -15 -57 42 -16 82 -86 272 -86 232z"/>
<path d="M3770 531 c0 -68 3 -90 14 -94 11 -4 16 3 18 26 4 46 33 48 55 3 19
-40 50 -51 37 -13 -8 22 -9 40 -4 105 4 42 -21 61 -77 62 l-43 0 0 -89z m88
35 c4 -33 -8 -49 -31 -41 -36 15 -31 78 6 73 16 -2 23 -11 25 -32z"/>
<path d="M3944 611 c-6 -6 -5 -147 1 -163 4 -9 22 -12 66 -10 72 5 76 25 6 30
-38 2 -47 7 -47 21 0 14 10 20 41 25 50 8 48 30 -5 34 -29 3 -36 7 -34 20 2
12 15 18 46 20 23 2 42 7 42 12 0 8 -108 19 -116 11z"/>
<path d="M4116 607 c-12 -9 -17 -23 -14 -42 2 -25 10 -32 46 -45 56 -19 53
-44 -6 -48 -48 -4 -55 -18 -16 -33 32 -12 58 -4 84 24 29 31 25 43 -25 73 -56
32 -61 59 -10 51 32 -5 34 -4 25 14 -12 22 -57 26 -84 6z"/>
<path d="M4383 605 c-62 -27 -68 -86 -14 -144 42 -45 87 -44 107 4 21 50 18
65 -12 65 -20 0 -24 -4 -20 -18 4 -10 -1 -27 -9 -38 -14 -18 -16 -18 -45 14
-16 18 -30 37 -30 42 0 21 40 48 80 55 23 4 38 11 33 15 -17 17 -59 19 -90 5z"/>
<path d="M4650 576 c0 -24 -4 -47 -9 -50 -5 -4 -28 15 -50 41 -23 25 -43 44
-46 41 -2 -2 -8 -43 -11 -91 -5 -63 -4 -87 5 -87 6 0 11 10 11 23 0 37 12 67
25 67 14 0 59 -49 68 -72 3 -9 8 -10 16 -3 16 16 19 167 4 172 -9 3 -13 -9
-13 -41z"/>
<path d="M5564 603 c20 -63 67 -158 78 -158 13 0 54 91 64 145 5 23 3 30 -8
30 -9 0 -18 -12 -21 -27 -3 -16 -11 -41 -17 -57 -13 -36 -27 -26 -51 37 -9 23
-24 44 -34 45 -12 3 -15 -1 -11 -15z"/>
<path d="M5760 530 c0 -73 3 -90 15 -90 12 0 15 17 15 90 0 73 -3 90 -15 90
-12 0 -15 -17 -15 -90z"/>
<path d="M5837 614 c-13 -13 -7 -23 16 -26 20 -3 22 -9 25 -75 2 -56 6 -73 17
-73 12 0 15 16 15 76 l0 77 31 -7 c25 -5 30 -3 27 12 -3 13 -16 18 -64 20 -33
2 -63 0 -67 -4z"/>
<path d="M6000 531 l0 -91 55 0 c42 0 55 3 55 15 0 11 -11 15 -40 15 -33 0
-40 3 -40 20 0 15 9 22 30 27 45 9 45 20 0 28 -52 9 -52 31 0 40 49 8 53 25 6
25 -19 0 -41 3 -50 6 -14 5 -16 -6 -16 -85z"/>
<path d="M4263 525 c2 -70 5 -85 17 -83 12 3 15 20 15 83 0 67 -3 80 -17 83
-14 3 -16 -7 -15 -83z"/>
</g>
</svg>
